<?xml version="1.0" encoding="UTF-8"?>
<svg id="Capa_2" data-name="Capa 2" xmlns="http://www.w3.org/2000/svg" viewBox="0 0 1003.64 296.26">
  <defs>
    <style>
      .cls-1 {
        fill: #fc0;
      }

      .cls-2 {
        fill: #4b9228;
      }
    </style>
  </defs>
  <g id="Capa_1-2" data-name="Capa 1">
    <g>
      <path class="cls-1" d="M1003.64,158.68c0,6.74-5.42,12.08-12.3,12.08s-12.36-5.34-12.36-12.08,5.48-11.99,12.43-11.99,12.22,5.27,12.22,11.99M982.05,158.68c0,5.35,4.03,9.59,9.37,9.59,5.2.07,9.14-4.25,9.14-9.51s-3.94-9.66-9.28-9.66-9.22,4.32-9.22,9.58M989.44,164.9h-2.79v-11.99c1.1-.15,2.64-.37,4.62-.37,2.26,0,3.29.37,4.09.95.74.52,1.26,1.39,1.26,2.56,0,1.47-1.11,2.42-2.5,2.85v.15c1.17.37,1.76,1.32,2.12,2.93.37,1.83.66,2.49.88,2.92h-2.93c-.36-.44-.58-1.46-.95-2.92-.22-1.24-.96-1.83-2.49-1.83h-1.32v4.75ZM989.51,158.18h1.32c1.53,0,2.78-.51,2.78-1.77,0-1.09-.81-1.83-2.57-1.83-.74,0-1.24.07-1.54.15v3.45Z"/>
      <path class="cls-1" d="M366.1,199.93v53.46h-54.41c-14.82,0-27.58-5.2-38.25-15.61-10.69-10.4-16.02-23.02-16.02-37.85s5.33-27.5,16.02-37.99c10.67-10.5,23.43-15.75,38.25-15.75s27.61,5.25,38.33,15.75c10.72,10.5,16.08,23.16,16.08,37.99M343.32,232.08v-32.15c0-8.85-3.06-16.47-9.21-22.84-6.12-6.39-13.62-9.59-22.48-9.59s-16.37,3.2-22.49,9.59c-6.14,6.38-9.2,13.99-9.2,22.84s3.06,16.41,9.2,22.71c6.13,6.3,13.62,9.44,22.49,9.44h31.69Z"/>
      <path class="cls-1" d="M431.84,253.39c-14.83,0-27.56-5.2-38.19-15.61-10.64-10.4-15.95-23.02-15.95-37.85s5.32-27.5,15.95-37.99c10.63-10.5,23.36-15.75,38.19-15.75h31.62c0,5.9-2.08,10.92-6.22,15.08-4.16,4.15-9.19,6.23-15.08,6.23h-10.32c-8.84,0-16.37,3.2-22.58,9.59-6.21,6.38-9.31,14-9.31,22.85s3.1,16.41,9.31,22.71c6.21,6.3,13.74,9.44,22.58,9.44h10.32c5.9,0,10.92,2.09,15.08,6.24,4.14,4.15,6.22,9.18,6.22,15.07h-31.62Z"/>
      <path class="cls-1" d="M513.47,253.39c-14.82,0-27.55-5.2-38.19-15.61-10.63-10.4-15.96-23.02-15.96-37.85s5.33-27.5,15.96-37.99c10.63-10.5,23.36-15.75,38.19-15.75h31.76v21.31h-31.76c-8.75,0-16.2,3.22-22.37,9.65-6.17,6.43-9.24,14.03-9.24,22.79s3.07,16.29,9.24,22.64c6.17,6.34,13.62,9.51,22.37,9.51h31.78c.07,6.93-.02,15.42-.02,21.31h-31.76Z"/>
      <path class="cls-1" d="M505.37,189.07h33.45c0,5.93-2.11,10.96-6.31,15.11-4.2,4.13-9.24,6.2-15.14,6.2h-12c-2.95,0-5.46-1-7.52-3.03-2.05-2.02-3.07-4.51-3.07-7.48s1-5.62,3.01-7.68c2.01-2.07,4.53-3.1,7.57-3.1"/>
      <path class="cls-1" d="M666.23,199.93v53.46c-6.16,0-12.21.17-22.52.17v-53.63c0-8.85-3.06-16.46-9.18-22.84-6.12-6.39-13.6-9.59-22.45-9.59s-16.34,3.19-22.51,9.59c-6.16,6.38-9.25,14-9.25,22.84v53.35c-9.12.15-16.26.11-22.51.11v-53.46c0-14.83,5.34-27.5,16.01-37.99,10.68-10.5,23.43-15.74,38.25-15.74,8.41,0,16.36,1.85,23.86,5.56,7.51,3.7,13.89,8.87,19.17,15.48,5.09-6.52,11.43-11.67,19.02-15.42,7.6-3.75,15.54-5.62,23.85-5.62,14.83,0,27.56,5.25,38.19,15.74,10.63,10.5,15.95,23.16,15.95,37.99v53.46c-6.17,0-13.84-.04-22.52-.04v-53.42c0-8.85-3.05-16.46-9.18-22.84-6.11-6.39-13.6-9.59-22.45-9.59s-16.34,3.19-22.51,9.59c-6.17,6.38-9.25,14-9.25,22.84"/>
      <path class="cls-1" d="M872.16,199.93v53.46h-54.4c-14.84,0-27.59-5.2-38.26-15.61-10.68-10.4-16.02-23.02-16.02-37.85s5.34-27.5,16.02-37.99c10.67-10.5,23.42-15.75,38.26-15.75s27.59,5.25,38.32,15.75c10.72,10.5,16.08,23.16,16.08,37.99M849.38,232.08v-32.15c0-8.85-3.06-16.47-9.2-22.84-6.13-6.39-13.62-9.59-22.49-9.59s-16.36,3.2-22.49,9.59c-6.13,6.38-9.19,13.99-9.19,22.84s3.06,16.41,9.19,22.71c6.13,6.3,13.63,9.44,22.49,9.44h31.69Z"/>
      <path class="cls-1" d="M909.04,253.3c-7.33,0-16.35.09-22.51.09v-53.73c0-14.83,5.34-27.46,16-37.86,10.67-10.4,23.43-15.61,38.26-15.61h31.63c0,5.89-2.08,10.92-6.25,15.08-4.13,4.15-9.17,6.23-15.07,6.23h-10.31c-8.84,0-16.35,3.14-22.51,9.44-6.16,6.3-9.25,13.88-9.25,22.72v53.64Z"/>
      <path class="cls-2" d="M152.21,233.91c.77-3.12.24-5.99-1.35-8.99-1.92-3.65-5-6.16-9.25-7.53h-.06c-11.43,18.18-6.56,71.29,36.15,78.86-15.05-7.78-32.43-35.48-25.51-62.28l.03-.06Z"/>
      <path class="cls-2" d="M82.98,233.97c6.92,26.8-10.46,54.5-25.51,62.28,42.7-7.57,47.58-60.68,36.14-78.86h-.06c-4.26,1.36-7.34,3.87-9.25,7.52-1.59,3-2.12,5.87-1.37,8.99l.04.06Z"/>
      <path class="cls-2" d="M159.06,230.05l-.88.04c-.3-3.53.68-6.63,2.95-9.33,1.93-2.3,4.34-3.74,7.19-4.3l.22-.05c24.55-4.98,46.77-21.5,58.54-46.35,17.19-36.35,5.63-77.79-25.53-97.77,37.11,19.7,51.73,66.28,32.51,106.88-14.48,30.62-44.23,49.47-75.03,50.87"/>
      <path class="cls-2" d="M106.81,205.44l-.74-.38c1.38-3.16,3.63-5.35,6.74-6.57,2.66-1.05,5.29-1.14,7.9-.24l.21.06c22.48,7.45,48.38,3.93,69.55-11.7,30.97-22.86,40.66-63.77,24.32-95.7,21.35,34.53,11.79,81.29-22.8,106.83-26.07,19.25-59.24,21.17-85.2,7.68"/>
      <path class="cls-2" d="M68.68,158.48l-.43-.65c2.7-1.81,5.63-2.45,8.82-1.91,2.7.45,4.94,1.66,6.67,3.61l.15.15c15,16.65,38.22,26.34,63.45,24.27,36.9-3.04,64.99-30.46,67.08-63.35.81,37.34-30.04,69.4-71.27,72.79-31.07,2.56-59.55-11.87-74.48-34.93"/>
      <path class="cls-2" d="M89.47,121.71c-.48-2.23-1.69-4.1-3.57-5.62-2.21-1.78-4.72-2.54-7.57-2.31l.15,2.04h.03c.12,1.49.29,2.99.52,4.47,3.44,22.46,18.73,42.22,41.8,50.39,32.63,11.56,68.99-4.22,83.48-35.4-14.88,26.49-47.27,39.39-76.48,29.04-20.18-7.14-33.85-23.3-38.35-42.55l-.02-.03Z"/>
      <path class="cls-2" d="M12.97,92.33l.43-.66c2.75,1.68,4.49,4.06,5.25,7.18.65,2.65.4,5.18-.74,7.57l-.07.2c-9.58,20.63-9.46,45.77,2.39,67.75,17.33,32.13,53.85,45.98,85.23,33.95-34.37,16.53-76.3,2.15-95.66-33.75-14.6-27.07-12.37-58.96,3.18-82.25"/>
      <path class="cls-2" d="M59.09,67.36l.66-.34c1.56,2.71,1.96,5.53,1.18,8.47-.66,2.5-2.02,4.48-4.07,5.91l-.15.11c-17.55,12.44-28.91,33.26-28.88,57.16.05,34.95,24.75,64.05,56.89,69.27-36.74-2.95-65.79-35.11-65.85-74.14-.05-29.43,16.39-54.72,40.23-66.44"/>
      <path class="cls-2" d="M113.94,64.75l.7.04c-.13,2.95-1.24,5.43-3.35,7.48-1.8,1.73-3.88,2.72-6.22,2.93l-.2.03c-20.23,2.02-39.82,13.77-51.9,33.34-17.63,28.62-12.7,63.91,10.23,83.14-27.73-19.5-34.58-59.32-14.87-91.29,14.84-24.1,40.72-37.15,65.61-35.66"/>
      <path class="cls-2" d="M129.64,99.74c1.9.84,3.92.97,6.03.42,2.5-.66,4.41-2.09,5.77-4.29l-1.56-.99v.03c-1.17-.72-2.36-1.39-3.57-2.02-18.28-9.57-40.95-9.02-59.34,3.45-26.01,17.64-34.04,52.74-19.04,80.11-11.36-25.15-3.36-55.77,19.92-71.56,16.08-10.92,35.25-12.21,51.76-5.14h.03Z"/>
      <path class="cls-2" d="M190.06,31.14l.55.65c-2.85,2.16-6.11,3.11-9.79,2.84-3.14-.22-5.81-1.27-8.01-3.16l-.18-.15c-19.01-16.15-46.54-24.19-74.97-19.61C56.07,18.41,27.35,50,28.84,84.9,23.55,45.58,54.87,8.82,101.33,1.35c35.01-5.66,69.08,6.9,88.74,29.81"/>
      <path class="cls-2" d="M200.2,84.79l.12.78c-3.55.67-6.79.14-9.7-1.58-2.5-1.47-4.15-3.45-4.95-5.94l-.07-.19c-7.07-21.37-25.61-39.36-51.75-47.07-38.22-11.28-79.24,3.68-96.91,33.74C53.84,29.2,99.82,10.92,142.52,23.53c32.19,9.49,53.73,33.94,57.67,61.29"/>
      <path class="cls-2" d="M182.64,139.83l-.3.68c-3.18-1.08-5.49-2.99-6.94-5.73-1.24-2.34-1.53-4.71-.89-7.11l.04-.19c5.33-20.65-.25-43.82-17.14-62.08-24.73-26.71-65.16-33.28-94.71-16.85,31.64-21.09,77.72-14.94,105.35,14.9,20.83,22.48,25.47,52.29,14.57,76.4"/>
      <path class="cls-2" d="M138.55,143.99c-1.62,1.6-2.52,3.55-2.71,5.82-.19,2.67.65,5.02,2.55,7.09l1.66-1.22-.02-.02c1.22-.92,2.4-1.87,3.54-2.86,17.26-14.96,25.11-37.53,18.31-59.74-9.61-31.42-45-50.73-80.51-44.79,31.73-3.07,62.23,14.76,70.84,42.89,5.94,19.43.23,38.78-13.64,52.8v.03Z"/>
    </g>
  </g>
</svg>